<svg xmlns="http://www.w3.org/2000/svg" width="763.631" height="800" viewBox="0 0 763.631 800" xmlns:xlink="http://www.w3.org/1999/xlink" role="img" artist="Katerina Limpitsouni" source="https://undraw.co/"><g transform="translate(-776.776 -233)"><path d="M5.257,93.351,15.583,70.157a38.973,38.973,0,1,1,31.239,7.011l-6.893,28.9Z" transform="translate(1006.537 489.073)" fill="#ed9da0"/><g transform="translate(1112.286 233)"><circle cx="26.277" cy="26.277" r="26.277" transform="translate(51.618 158.958)" fill="#DC143C"/><path d="M652.558,344.462V294.672H660.3v49.789a10.322,10.322,0,1,1-7.742,0Z" transform="translate(-615.133 -118)" fill="#090814"/><path d="M173.622,796.3v-7.028a23,23,0,0,1,23-23H282.2C209.433,584.4,216.162,355.34,278.307,157.858A114.791,114.791,0,0,0,244.861,36.41C211.345,6.5,165.142-.79,124.282,17.383,87.67,33.67,79.908,60.3,79.773,95.25H114.5a43.171,43.171,0,0,1,0,86.342H43.172a43.171,43.171,0,1,1,0-86.342H72.265c.114-32.872,6.338-65.767,48.964-84.727,43.6-19.39,92.882-11.617,128.635,20.286a122.218,122.218,0,0,1,35.605,129.305C223.876,355.838,216.857,584,289.718,764.863l-3.486,1.4H379.6a23,23,0,0,1,23.008,23V796.3Z" transform="translate(0 0)" fill="#d6d6e3"/></g><path d="M621.545,422.661A11.246,11.246,0,0,0,615.9,437.3a10.8,10.8,0,0,0,.859,1.563l-23.519,31.4,11.736,17.541,27.568-46.5a11.215,11.215,0,0,0,3.412-13.26,10.733,10.733,0,0,0-14.145-5.5Q621.678,422.6,621.545,422.661Z" transform="translate(474.011 170.579)" fill="#ed9da0"/><path d="M624.03,508.992c-12.663,12.315-27.388,24.194-27.388,24.194l-5.17-4.139-54.21-43.464-9.149-12.663a90.12,90.12,0,0,1,3.761-14.711,160.34,160.34,0,0,1,8.161-19.372c1.685-3.412,3.413-6.665,5.068-9.657l29.044,32.006,24.339,26.808L638.7,442.859l.668.6,12.126,10.7,3.471,3.064S633.4,499.887,624.03,508.992Z" transform="translate(445.498 173.885)" fill="#d6d6e3"/><path d="M594.489,628.984l194.8,4.939L621.45,549.069Z" transform="translate(474.556 226.37)" fill="#2f2e41"/><path d="M559.814,447.677l20.664-15.169L546.736,385.47l-28.568,12.078Z" transform="translate(706.641 395.763)" fill="#ed9da0"/><path d="M541.035,547.048l1.937,45.017c2.28,53,60.643,85.07,105.9,57.4q1.251-.765,2.511-1.585s17.157-4.607,16.636-11.9,3.671-10.848,7.38-8.858,52.273-66.932,52.273-66.932,22.554,26.909,44.813,38.758c0,0,37.1-15.519,30.365-26.012s-57.434-68.908-57.434-68.908-20.089-20.331-45.008-6.907c-.519,1.972-.075,2.041-.075,2.041l-82.317,67.075-11.631-22.089Z" transform="translate(451.155 201.62)" fill="#2f2e41"/><path d="M614.2,590.709s-62.386.044-74-4.313-14.26-28.9-3.848-31.324-3.151-4.836-9.265-10.427,6.114-14.74,6.114-14.74-5.039-8.7-4.618-37.9a57.563,57.563,0,0,1,.741-8.016,90.112,90.112,0,0,1,3.761-14.711,160.4,160.4,0,0,1,8.161-19.372c1.685-3.413,3.413-6.665,5.068-9.657.261-.465.508-.915.77-1.365,3.151-5.576,6.027-10.136,7.929-13.055,1.467-2.265,2.353-3.543,2.353-3.543L567.929,403.9l35.288,16.54s17.572,6.27,20.316,48.837S613.054,586.836,614.2,590.709Z" transform="translate(444.296 162.818)" fill="#d6d6e3"/><path d="M691.814,535.8l-.662-.214-84.461-27.2,31.123-102.106a14.044,14.044,0,0,1,20.577-8l53.974,31.889a21.158,21.158,0,0,1,9.085,25.575Z" transform="translate(479.898 159.505)" fill="#DC143C"/><path d="M692.058,540.315,606.917,512.9l31.123-102.106a14.044,14.044,0,0,1,20.577-8l56.551,28.234c8.5,5.018,8.3,18.006,4.352,28.663Z" transform="translate(479.997 161.48)" fill="#090814"/><path d="M681.7,542.427a16.234,16.234,0,0,1-13.012,1.294l-46.253-13.15c-4.811-1.572-10.438-9.845-10.438-9.845s-1.625-7.086-.453-10.988l29-86.889a14.043,14.043,0,0,1,17.815-9.247l46.514,11.522a21.167,21.167,0,0,1,13.321,27.258l-29.172,81.328a16.254,16.254,0,0,1-7.321,8.716Z" transform="translate(481.835 166.759)" fill="#DC143C"/><path d="M54.662,375.583C-86.346,243.429,89.987,31.245,89.987,31.245s60.639-59.824,65.051-13.912c16.011,18.7,11.72,98.882,21.993,161.364a93.041,93.041,0,0,1,11.866-.551c49.669,1.1,111.518,51.343,111.573,91.723,22.41-1.944,45.776-6.49,68.494-11.035,57.592-11.52,111.051-23.046,134.423,7.832,19.275,25.462,8.813,67.506-4.353,91.489-31.687,57.712-125.605,95.7-225.628,95.692C195.282,453.841,113.423,430.655,54.662,375.583Z" transform="translate(837.897 578.307)" fill="#f2f2f2"/><path d="M315.238,746.7c-18.166-3.427-34.246-85.267,1.495-125.573,12.245-13.81,27.52-19.82,47.837-25.414,116.943-32.2,206.137-1.512,218.123,5.98,11.959,7.475,32.925,120.1,6.115,136.038-15.085,8.969-44.983,13.454-59.8,2.99-21.8-15.4,14.79-55.337-1.495-82.22-18.48-30.507-115.79-40.783-164.577-10.464C310.89,680.379,418.252,766.131,315.238,746.7Z" transform="translate(517.71 283.47)" fill="#e6e6e6"/><path d="M18.543,157.368C4.77,144.165-5.08,131.442,2.8,120.881a11.445,11.445,0,0,1,11.448-11.444H41.587a85.573,85.573,0,0,1-4.048-12.858h-.008c-12.114,4.146-23.437,2.8-26.074-11.44A34.883,34.883,0,0,1,5.034,75.08c.051-.006.1-.014.148-.021l.07-.011a3.506,3.506,0,0,0,1.415-6.38q-.7-.466-1.434-.876a23.942,23.942,0,0,0-2.642-1.276c-.008-.053-.016-.107-.024-.161A4.023,4.023,0,0,1,8.729,62.44c6.078,3.72,14.038,5.424,19.672,10.052a21.428,21.428,0,0,1,7.319,12.382l.024.154a80.787,80.787,0,0,1-.059-13.1,85.572,85.572,0,0,1,4.6-21.675c-.286-.14-.566-.288-.852-.434-13-.266-22.1-6.207-17.884-22.513a34.99,34.99,0,0,1-.922-5.216l.073-.01A3.506,3.506,0,0,0,22.115,15.7q-.7-.464-1.431-.878c.005-.062.011-.122.019-.184.7-6.322,8.79-8.5,12.739-3.512,3.286,4.155,7.019,8.2,9.011,13A34.855,34.855,0,0,1,44.533,40.31a83.885,83.885,0,0,1,8.747-13.86c.186-.234.378-.463.561-.7-1.787-2.863-2.067-6.48-4.105-9.154-3.2-4.2-3.154-8.569,2.068-11.2,2.443-6.259,7.124-7.065,10.52-2.459.682.928,1.8,1.4,2.429,2.348-.339.418.9,7.254,1.353,7.194A16.944,16.944,0,0,1,64.566,17.1a22.148,22.148,0,0,1-9.218,9.563,83.3,83.3,0,0,0-16.516,35.3q-.724,3.566-1.132,7.189a78.679,78.679,0,0,0-.493,8.865,82.333,82.333,0,0,0,6.277,31.419h.776a20.615,20.615,0,0,1,.075-4.287c.658-5.334,3.324-10.385,5.418-15.432a6.943,6.943,0,0,1,12.806-.045c.021.056.046.113.07.169l-.178.7a2.584,2.584,0,0,0,1.874,4.48,34.162,34.162,0,0,1,1,8.7l0,0c-.771.957-1.55,1.906-2.323,2.863a1.36,1.36,0,0,1-.1.111q-1.108,1.362-2.221,2.733H78.637a11.445,11.445,0,0,1,11.448,11.444c3,12.036-2.361,24.2-15.739,36.487Z" transform="translate(884.089 733.652)" fill="#d6d6e3"/><g transform="translate(1021.892 828.234)"><path d="M484.842,608.462a6.166,6.166,0,0,0,5.942,4.162l25.459-.655a6.082,6.082,0,0,0,5.748-4.475l3.6-38.525a9.411,9.411,0,0,0,4.073.837,9.285,9.285,0,0,0-.466-18.564,7.882,7.882,0,0,0-1.669.174,6.292,6.292,0,0,0-4.684-2.021L483.686,550.4a5.622,5.622,0,0,0-.966.12,6.117,6.117,0,0,0-4.683,7.943Zm41.491-42.109,2.564-9.181a6.254,6.254,0,0,0,.02-3.243c.125,0,.234-.059.359-.06a6.641,6.641,0,0,1,.311,13.279,6.251,6.251,0,0,1-3.253-.8Z" transform="translate(-477.724 -549.393)" fill="#d6d6e3"/></g><path d="M225.645,728.353l761.21.442c.669,0,1.211-.766,1.211-1.712s-.542-1.712-1.211-1.712l-761.21-.442c-.668,0-1.21.766-1.21,1.712S224.976,728.353,225.645,728.353Z" transform="translate(552.342 303.358)" fill="#e6e6e6"/><path d="M659.1,461.21a11.246,11.246,0,0,0-10.836,11.342,10.767,10.767,0,0,0,.192,1.773l-33.786,19.946,4.089,20.7,43.328-32.328a11.215,11.215,0,0,0,8.249-10.928A10.733,10.733,0,0,0,659.4,461.2Q659.251,461.2,659.1,461.21Z" transform="translate(483.393 187.902)" fill="#ed9da0"/><path d="M614.317,549.314l-25.845-1.579L558.727,493.33l-10.252-43.608a19.456,19.456,0,0,1-.519-4.641,184.291,184.291,0,0,1,29-16.694,19.416,19.416,0,0,1,8.714,10.381l20.475,57.409,12.51,16.238,50.136-19.522.388.809,7.067,14.536,2.023,4.176Z" transform="translate(454.185 173.539)" fill="#d6d6e3"/><path d="M.166,51.452c.868-5.859,34.516,0,34.516,0C26.867,39.517,58.57,29.005,58.57,29.005c9.736,4.152,8.472-4.916,5.329-13.984A131.3,131.3,0,0,0,57.4,0C74.848,5.4,81.571,25.635,84,36.87l.254-2s-.22-14.388,12.025-8.859C107.827,31.23,113.14,52.952,114.423,52c-10.3,23.264-17.789,21.883-22.389,20.5a7.8,7.8,0,0,0-3.192-.616c-5.566,1.06-7.613-1.006-8.282-3.287-5.066,8.94-15.117,17.553-34.805,20.177a71.588,71.588,0,0,1-9.454.663C.05,89.433-.637,56.874.166,51.452Zm114.445.118a.736.736,0,0,1-.189.428Z" transform="matrix(-0.985, -0.174, 0.174, -0.985, 1075.93, 565.844)" fill="#090814"/></g></svg>